<svg xmlns="http://www.w3.org/2000/svg" viewBox="0 0 652.72 653.04"><defs><style>.cls-1{fill:#4e6072;}</style></defs><g id="Object"><path class="cls-1" d="M652.72,344.31V311.77l-37.36-12.39q-.9-9.15-2.37-18.11l32.87-21.64-8.42-31.42-39.21-2.29c-2.17-5.74-4.49-11.41-7-17l26.08-29.32-16.26-28.18-38.45,7.93q-5.36-7.47-11.17-14.57L569,109.73l-23-23-35,17.56Q503.91,98.44,496.41,93l7.9-38.32L476.13,38.45,447,64.34q-8.46-3.84-17.2-7.15l-2.27-38.87L396.13,9.9,374.76,42.36c-6.12-1-12.3-1.85-18.55-2.47L344,3H311.45L299.26,39.79q-9.43.91-18.69,2.41L259.31,9.9l-31.42,8.42-2.25,38.45Q216.7,60.11,208.05,64L179.31,38.45,151.13,54.71l7.76,37.64Q151.12,97.9,143.74,104L109.41,86.73l-23,23L103.6,144q-6.1,7.4-11.7,15.21l-37.51-7.74L38.13,179.63,63.5,208.15q-4,8.76-7.39,17.83L18,228.21,9.58,259.63l31.89,21q-1.56,9.47-2.5,19.13l-36.25,12v32.54l36.25,12q.93,9.66,2.5,19.13l-31.89,21L18,427.87l38.11,2.23q3.41,9.06,7.39,17.83L38.13,476.45l16.26,28.18,37.51-7.74q5.61,7.8,11.7,15.21L86.41,546.35l23,23,34.33-17.23q7.38,6,15.15,11.61l-7.76,37.64,28.18,16.26,28.74-25.56q8.64,3.9,17.59,7.24l2.25,38.45,31.42,8.42,21.26-32.3q9.26,1.5,18.69,2.41L311.45,653H344l12.22-36.85c6.25-.62,12.43-1.46,18.55-2.47l21.37,32.46,31.42-8.42,2.27-38.87q8.74-3.32,17.2-7.15l29.11,25.89,28.18-16.26-7.9-38.32q7.48-5.41,14.62-11.26l35,17.56,23-23-17.6-35.08q5.8-7.09,11.17-14.57l38.45,7.93,16.26-28.18-26.08-29.32c2.51-5.56,4.83-11.23,7-17l39.21-2.29,8.42-31.42L613,374.81q1.46-9,2.37-18.11ZM349.45,87.79A241.07,241.07,0,0,1,524.56,189.3l-148,85.44A72.26,72.26,0,0,0,349.45,259ZM205.76,119.53A239.69,239.69,0,0,1,306,87.71V259a72.26,72.26,0,0,0-27.14,15.7l-60.8-35.11-87.94-50.77A242.5,242.5,0,0,1,205.76,119.53ZM108.3,429.64a241.32,241.32,0,0,1,0-203.2l148.82,85.93a72.24,72.24,0,0,0,0,31.34ZM306,568.37A241,241,0,0,1,130.11,467.22l148.74-85.88A72.26,72.26,0,0,0,306,397Zm21.73-202.7A37.63,37.63,0,1,1,365.35,328,37.63,37.63,0,0,1,327.72,365.67Zm21.73,202.62V397a72.26,72.26,0,0,0,27.14-15.7l148,85.44A241.07,241.07,0,0,1,349.45,568.29ZM546.28,429.14l-148-85.43a72.24,72.24,0,0,0,0-31.34l148-85.43a241.21,241.21,0,0,1,0,202.2Z"/></g></svg>